<svg height="1140pt" viewBox="0.00 0.00 217.00 1140.00" width="217pt" xmlns="http://www.w3.org/2000/svg" xmlns:xlink="http://www.w3.org/1999/xlink">
<g class="graph" id="graph0" transform="scale(1 1) rotate(0) translate(4 1136)">
<title>G</title>
<polygon fill="white" points="-4,4 -4,-1136 213,-1136 213,4 -4,4" stroke="none"/>
<!-- 1515733233848 -->
<g class="node" id="node1"><title>1515733233848</title>
<polygon fill="none" points="41,-1022.5 41,-1058.5 168,-1058.5 168,-1022.5 41,-1022.5" stroke="black"/>
<text font-family="Times New Roman,serif" font-size="14.00" text-anchor="middle" x="104.5" y="-1036.8">conv2d_1: Conv2D</text>
</g>
<!-- 1515733235584 -->
<g class="node" id="node2"><title>1515733235584</title>
<polygon fill="none" points="30.5,-949.5 30.5,-985.5 178.5,-985.5 178.5,-949.5 30.5,-949.5" stroke="black"/>
<text font-family="Times New Roman,serif" font-size="14.00" text-anchor="middle" x="104.5" y="-963.8">activation_1: Activation</text>
</g>
<!-- 1515733233848&#45;&gt;1515733235584 -->
<g class="edge" id="edge2"><title>1515733233848-&gt;1515733235584</title>
<path d="M104.5,-1022.31C104.5,-1014.29 104.5,-1004.55 104.5,-995.569" fill="none" stroke="black"/>
<polygon fill="black" points="108,-995.529 104.5,-985.529 101,-995.529 108,-995.529" stroke="black"/>
</g>
<!-- 1515733235696 -->
<g class="node" id="node3"><title>1515733235696</title>
<polygon fill="none" points="0,-876.5 0,-912.5 209,-912.5 209,-876.5 0,-876.5" stroke="black"/>
<text font-family="Times New Roman,serif" font-size="14.00" text-anchor="middle" x="104.5" y="-890.8">max_pooling2d_1: MaxPooling2D</text>
</g>
<!-- 1515733235584&#45;&gt;1515733235696 -->
<g class="edge" id="edge3"><title>1515733235584-&gt;1515733235696</title>
<path d="M104.5,-949.313C104.5,-941.289 104.5,-931.547 104.5,-922.569" fill="none" stroke="black"/>
<polygon fill="black" points="108,-922.529 104.5,-912.529 101,-922.529 108,-922.529" stroke="black"/>
</g>
<!-- 1515733234968 -->
<g class="node" id="node4"><title>1515733234968</title>
<polygon fill="none" points="41,-803.5 41,-839.5 168,-839.5 168,-803.5 41,-803.5" stroke="black"/>
<text font-family="Times New Roman,serif" font-size="14.00" text-anchor="middle" x="104.5" y="-817.8">conv2d_2: Conv2D</text>
</g>
<!-- 1515733235696&#45;&gt;1515733234968 -->
<g class="edge" id="edge4"><title>1515733235696-&gt;1515733234968</title>
<path d="M104.5,-876.313C104.5,-868.289 104.5,-858.547 104.5,-849.569" fill="none" stroke="black"/>
<polygon fill="black" points="108,-849.529 104.5,-839.529 101,-849.529 108,-849.529" stroke="black"/>
</g>
<!-- 1515733347408 -->
<g class="node" id="node5"><title>1515733347408</title>
<polygon fill="none" points="30.5,-730.5 30.5,-766.5 178.5,-766.5 178.5,-730.5 30.5,-730.5" stroke="black"/>
<text font-family="Times New Roman,serif" font-size="14.00" text-anchor="middle" x="104.5" y="-744.8">activation_2: Activation</text>
</g>
<!-- 1515733234968&#45;&gt;1515733347408 -->
<g class="edge" id="edge5"><title>1515733234968-&gt;1515733347408</title>
<path d="M104.5,-803.313C104.5,-795.289 104.5,-785.547 104.5,-776.569" fill="none" stroke="black"/>
<polygon fill="black" points="108,-776.529 104.5,-766.529 101,-776.529 108,-776.529" stroke="black"/>
</g>
<!-- 1515733348304 -->
<g class="node" id="node6"><title>1515733348304</title>
<polygon fill="none" points="0,-657.5 0,-693.5 209,-693.5 209,-657.5 0,-657.5" stroke="black"/>
<text font-family="Times New Roman,serif" font-size="14.00" text-anchor="middle" x="104.5" y="-671.8">max_pooling2d_2: MaxPooling2D</text>
</g>
<!-- 1515733347408&#45;&gt;1515733348304 -->
<g class="edge" id="edge6"><title>1515733347408-&gt;1515733348304</title>
<path d="M104.5,-730.313C104.5,-722.289 104.5,-712.547 104.5,-703.569" fill="none" stroke="black"/>
<polygon fill="black" points="108,-703.529 104.5,-693.529 101,-703.529 108,-703.529" stroke="black"/>
</g>
<!-- 1515733236760 -->
<g class="node" id="node7"><title>1515733236760</title>
<polygon fill="none" points="41,-584.5 41,-620.5 168,-620.5 168,-584.5 41,-584.5" stroke="black"/>
<text font-family="Times New Roman,serif" font-size="14.00" text-anchor="middle" x="104.5" y="-598.8">conv2d_3: Conv2D</text>
</g>
<!-- 1515733348304&#45;&gt;1515733236760 -->
<g class="edge" id="edge7"><title>1515733348304-&gt;1515733236760</title>
<path d="M104.5,-657.313C104.5,-649.289 104.5,-639.547 104.5,-630.569" fill="none" stroke="black"/>
<polygon fill="black" points="108,-630.529 104.5,-620.529 101,-630.529 108,-630.529" stroke="black"/>
</g>
<!-- 1515733445096 -->
<g class="node" id="node8"><title>1515733445096</title>
<polygon fill="none" points="30.5,-511.5 30.5,-547.5 178.5,-547.5 178.5,-511.5 30.5,-511.5" stroke="black"/>
<text font-family="Times New Roman,serif" font-size="14.00" text-anchor="middle" x="104.5" y="-525.8">activation_3: Activation</text>
</g>
<!-- 1515733236760&#45;&gt;1515733445096 -->
<g class="edge" id="edge8"><title>1515733236760-&gt;1515733445096</title>
<path d="M104.5,-584.313C104.5,-576.289 104.5,-566.547 104.5,-557.569" fill="none" stroke="black"/>
<polygon fill="black" points="108,-557.529 104.5,-547.529 101,-557.529 108,-557.529" stroke="black"/>
</g>
<!-- 1515733445432 -->
<g class="node" id="node9"><title>1515733445432</title>
<polygon fill="none" points="0,-438.5 0,-474.5 209,-474.5 209,-438.5 0,-438.5" stroke="black"/>
<text font-family="Times New Roman,serif" font-size="14.00" text-anchor="middle" x="104.5" y="-452.8">max_pooling2d_3: MaxPooling2D</text>
</g>
<!-- 1515733445096&#45;&gt;1515733445432 -->
<g class="edge" id="edge9"><title>1515733445096-&gt;1515733445432</title>
<path d="M104.5,-511.313C104.5,-503.289 104.5,-493.547 104.5,-484.569" fill="none" stroke="black"/>
<polygon fill="black" points="108,-484.529 104.5,-474.529 101,-484.529 108,-484.529" stroke="black"/>
</g>
<!-- 1515733581440 -->
<g class="node" id="node10"><title>1515733581440</title>
<polygon fill="none" points="50,-365.5 50,-401.5 159,-401.5 159,-365.5 50,-365.5" stroke="black"/>
<text font-family="Times New Roman,serif" font-size="14.00" text-anchor="middle" x="104.5" y="-379.8">flatten_1: Flatten</text>
</g>
<!-- 1515733445432&#45;&gt;1515733581440 -->
<g class="edge" id="edge10"><title>1515733445432-&gt;1515733581440</title>
<path d="M104.5,-438.313C104.5,-430.289 104.5,-420.547 104.5,-411.569" fill="none" stroke="black"/>
<polygon fill="black" points="108,-411.529 104.5,-401.529 101,-411.529 108,-411.529" stroke="black"/>
</g>
<!-- 1515733348248 -->
<g class="node" id="node11"><title>1515733348248</title>
<polygon fill="none" points="52.5,-292.5 52.5,-328.5 156.5,-328.5 156.5,-292.5 52.5,-292.5" stroke="black"/>
<text font-family="Times New Roman,serif" font-size="14.00" text-anchor="middle" x="104.5" y="-306.8">dense_1: Dense</text>
</g>
<!-- 1515733581440&#45;&gt;1515733348248 -->
<g class="edge" id="edge11"><title>1515733581440-&gt;1515733348248</title>
<path d="M104.5,-365.313C104.5,-357.289 104.5,-347.547 104.5,-338.569" fill="none" stroke="black"/>
<polygon fill="black" points="108,-338.529 104.5,-328.529 101,-338.529 108,-338.529" stroke="black"/>
</g>
<!-- 1515733711672 -->
<g class="node" id="node12"><title>1515733711672</title>
<polygon fill="none" points="30.5,-219.5 30.5,-255.5 178.5,-255.5 178.5,-219.5 30.5,-219.5" stroke="black"/>
<text font-family="Times New Roman,serif" font-size="14.00" text-anchor="middle" x="104.5" y="-233.8">activation_4: Activation</text>
</g>
<!-- 1515733348248&#45;&gt;1515733711672 -->
<g class="edge" id="edge12"><title>1515733348248-&gt;1515733711672</title>
<path d="M104.5,-292.313C104.5,-284.289 104.5,-274.547 104.5,-265.569" fill="none" stroke="black"/>
<polygon fill="black" points="108,-265.529 104.5,-255.529 101,-265.529 108,-265.529" stroke="black"/>
</g>
<!-- 1515733710328 -->
<g class="node" id="node13"><title>1515733710328</title>
<polygon fill="none" points="39.5,-146.5 39.5,-182.5 169.5,-182.5 169.5,-146.5 39.5,-146.5" stroke="black"/>
<text font-family="Times New Roman,serif" font-size="14.00" text-anchor="middle" x="104.5" y="-160.8">dropout_1: Dropout</text>
</g>
<!-- 1515733711672&#45;&gt;1515733710328 -->
<g class="edge" id="edge13"><title>1515733711672-&gt;1515733710328</title>
<path d="M104.5,-219.313C104.5,-211.289 104.5,-201.547 104.5,-192.569" fill="none" stroke="black"/>
<polygon fill="black" points="108,-192.529 104.5,-182.529 101,-192.529 108,-192.529" stroke="black"/>
</g>
<!-- 1515733712512 -->
<g class="node" id="node14"><title>1515733712512</title>
<polygon fill="none" points="52.5,-73.5 52.5,-109.5 156.5,-109.5 156.5,-73.5 52.5,-73.5" stroke="black"/>
<text font-family="Times New Roman,serif" font-size="14.00" text-anchor="middle" x="104.5" y="-87.8">dense_2: Dense</text>
</g>
<!-- 1515733710328&#45;&gt;1515733712512 -->
<g class="edge" id="edge14"><title>1515733710328-&gt;1515733712512</title>
<path d="M104.5,-146.313C104.5,-138.289 104.5,-128.547 104.5,-119.569" fill="none" stroke="black"/>
<polygon fill="black" points="108,-119.529 104.5,-109.529 101,-119.529 108,-119.529" stroke="black"/>
</g>
<!-- 1515733799600 -->
<g class="node" id="node15"><title>1515733799600</title>
<polygon fill="none" points="30.5,-0.5 30.5,-36.5 178.5,-36.5 178.5,-0.5 30.5,-0.5" stroke="black"/>
<text font-family="Times New Roman,serif" font-size="14.00" text-anchor="middle" x="104.5" y="-14.8">activation_5: Activation</text>
</g>
<!-- 1515733712512&#45;&gt;1515733799600 -->
<g class="edge" id="edge15"><title>1515733712512-&gt;1515733799600</title>
<path d="M104.5,-73.3129C104.5,-65.2895 104.5,-55.5475 104.5,-46.5691" fill="none" stroke="black"/>
<polygon fill="black" points="108,-46.5288 104.5,-36.5288 101,-46.5289 108,-46.5288" stroke="black"/>
</g>
<!-- 1515733234072 -->
<g class="node" id="node16"><title>1515733234072</title>
<polygon fill="none" points="52.5,-1095.5 52.5,-1131.5 156.5,-1131.5 156.5,-1095.5 52.5,-1095.5" stroke="black"/>
<text font-family="Times New Roman,serif" font-size="14.00" text-anchor="middle" x="104.5" y="-1109.8">1515733234072</text>
</g>
<!-- 1515733234072&#45;&gt;1515733233848 -->
<g class="edge" id="edge1"><title>1515733234072-&gt;1515733233848</title>
<path d="M104.5,-1095.31C104.5,-1087.29 104.5,-1077.55 104.5,-1068.57" fill="none" stroke="black"/>
<polygon fill="black" points="108,-1068.53 104.5,-1058.53 101,-1068.53 108,-1068.53" stroke="black"/>
</g>
</g>
</svg>